PathFileType	4	(X/Y/Z)	s03c0303.trc
DataRate	CameraRate	NumFrames	NumMarkers	Units	OrigDataRate	OrigDataStartFrame	OrigNumFrames
200	200	4	50	mm	200	500	2000
Frame#	Time	racr			lacr			c7			jug			rlel			rdr			llel			ldr			s2			lic			ric			lasi			rasi			rpsi			lpsi			rgt			lgt			rth1			rth2			rth3			rth4			rlfc			rmfc			rsh1			rsh2			rsh3			rsh4			rlmal			rcal			rtoe			rmt5			rmt1			lth1			lth2			lth4			lth3			llfc			lmfc			lsh1			lsh2			lsh3			lsh4			llmal			lcal			ltoe			lmt1			lmt5			SBIKE			LBIKE			RBIKE			
		X1	Y1	Z1	X2	Y2	Z2	X3	Y3	Z3	X4	Y4	Z4	X5	Y5	Z5	X6	Y6	Z6	X7	Y7	Z7	X8	Y8	Z8	X9	Y9	Z9	X10	Y10	Z10	X11	Y11	Z11	X12	Y12	Z12	X13	Y13	Z13	X14	Y14	Z14	X15	Y15	Z15	X16	Y16	Z16	X17	Y17	Z17	X18	Y18	Z18	X19	Y19	Z19	X20	Y20	Z20	X21	Y21	Z21	X22	Y22	Z22	X23	Y23	Z23	X24	Y24	Z24	X25	Y25	Z25	X26	Y26	Z26	X27	Y27	Z27	X28	Y28	Z28	X29	Y29	Z29	X30	Y30	Z30	X31	Y31	Z31	X32	Y32	Z32	X33	Y33	Z33	X34	Y34	Z34	X35	Y35	Z35	X36	Y36	Z36	X37	Y37	Z37	X38	Y38	Z38	X39	Y39	Z39	X40	Y40	Z40	X41	Y41	Z41	X42	Y42	Z42	X43	Y43	Z43	X44	Y44	Z44	X45	Y45	Z45	X46	Y46	Z46	X47	Y47	Z47	X48	Y48	Z48	X49	Y49	Z49	X50	Y50	Z50	
500	2.5000	743.336133	1484.727847	-118.631331	667.047209	1513.860812	-446.241854	649.115618	1606.085267	-265.105222	674.519351	1434.606538	-280.851918	677.252037	1214.814216	-13.116882	779.114290	942.779428	-60.360772	646.324603	1226.683820	-493.759026	774.722547	949.375799	-437.186804	145.709923	1301.561479	-200.423415	289.298612	1354.963844	-397.186846	341.128153	1303.255760	-40.964619	323.857327	1276.247338	-365.851851	361.399685	1237.851598	-96.380308	184.162619	1340.974209	-150.928931	175.734360	1353.632460	-233.782444	251.498569	1180.906860	-37.550897	256.214071	1258.088251	-424.658282	270.024390	1032.302128	-25.592409	309.970182	952.592725	-27.942104	307.875118	867.389272	-39.409420	344.859718	961.293510	-36.956415	315.106257	743.821534	-75.148753	320.906181	726.315527	-192.835518	256.710831	590.953980	-41.758801	255.080351	501.937021	-50.875085	209.328448	426.477702	-49.809232	284.697962	494.866538	-75.353616	162.724131	308.842307	-66.189222	96.379637	319.146626	-100.378833	311.066031	94.219374	-121.468554	219.440422	164.619383	-43.941532	245.915165	165.498708	-157.153619	354.857871	1152.132592	-470.182622	431.372196	1115.068270	-486.997757	456.298009	1140.597385	-476.849835	480.266467	1041.206512	-499.136376	587.413386	952.240788	-498.191523	604.470086	934.109305	-367.431124	462.984493	829.728846	-499.160553	422.054364	759.551030	-472.144071	344.235290	715.117974	-458.346097	446.922790	740.214089	-450.221958	252.246322	634.047908	-428.301870	176.020790	630.165687	-377.847227	427.923142	452.383456	-359.856022	348.687157	504.247851	-319.701531	319.524434	495.550583	-436.848522	-270.592649	926.604760	-250.652444	-14.533427	81.267984	-437.396967	-14.303478	81.052193	-36.982773	
501	2.5050	744.837654	1483.875552	-121.405413	666.184698	1515.552868	-447.647323	650.017714	1606.477220	-266.549006	674.241039	1435.078887	-283.304975	677.871467	1214.924060	-14.091057	779.274885	942.604396	-60.264637	643.465553	1227.925379	-492.758437	774.339032	950.776980	-436.928635	144.612078	1305.466727	-200.489428	287.561870	1359.017223	-396.822043	341.148488	1306.090902	-40.580866	322.209279	1279.407634	-365.849619	360.812764	1240.686660	-95.881488	184.569064	1344.530911	-150.435244	175.631084	1357.557761	-232.950732	251.453476	1184.175965	-37.041513	255.060776	1261.671061	-424.009686	270.392367	1035.154220	-25.336317	310.533997	955.562329	-27.675743	308.635513	870.264722	-38.889318	345.383284	964.253006	-36.843698	315.486154	746.421340	-74.120413	321.491927	729.476240	-192.207721	255.070086	594.216795	-40.944249	251.863077	505.241761	-50.390308	204.880317	430.512885	-49.257247	280.613145	497.804526	-74.726859	156.345818	313.458661	-65.959317	89.978046	324.277862	-100.342117	302.137198	96.939977	-121.216937	211.103547	168.194737	-43.840781	237.471341	168.570901	-157.272741	353.403950	1153.888072	-468.914841	430.085255	1116.447027	-484.979568	454.798757	1142.232484	-475.459152	478.869049	1042.535742	-496.721964	586.402203	954.048964	-495.330041	603.057057	937.471404	-364.033132	463.980655	829.318481	-497.142068	424.093035	758.386570	-470.823808	346.959498	712.517034	-457.560892	449.205442	739.300545	-448.690006	256.199859	629.233808	-428.256523	179.521177	623.153665	-377.948808	436.587518	452.727971	-359.973309	354.461918	501.743090	-321.946584	326.889375	492.782856	-436.993140	-270.548873	926.681435	-250.658295	-14.539402	81.343665	-437.372741	-14.296029	81.105657	-36.950745	
502	2.5100	746.075083	1483.125007	-124.217941	665.219086	1517.012557	-448.873339	650.858993	1606.752565	-267.933943	674.000183	1435.431874	-285.802030	678.329265	1215.057369	-15.108681	779.422727	942.495894	-60.097661	640.465487	1228.933733	-492.124639	773.679702	952.026895	-436.414474	146.784253	1307.689277	-202.054695	285.861762	1362.879940	-396.722077	341.071602	1308.768435	-40.246221	320.498716	1282.208613	-365.683168	359.264133	1244.030338	-94.041315	184.839436	1348.064120	-149.995678	175.541445	1361.489001	-232.249941	251.164903	1187.339272	-36.589919	254.014156	1264.942637	-423.480813	271.009552	1037.887725	-25.197233	311.550376	958.461538	-27.631592	310.000321	873.194855	-38.518606	346.240916	967.341354	-36.894655	316.751909	748.920614	-73.108722	322.479158	732.480631	-191.369663	253.815240	597.503288	-40.036016	249.354194	508.819956	-49.331315	200.318380	434.838523	-48.871369	277.840211	500.898599	-73.909613	149.579061	318.483456	-65.828208	83.061068	329.294189	-100.534202	293.402345	100.502209	-120.968377	202.776318	172.180262	-43.842010	229.207915	172.141629	-157.340845	352.011729	1155.345658	-467.762225	428.585203	1117.557681	-483.357825	453.370146	1143.428342	-474.166708	477.194190	1043.630650	-494.771087	585.116586	955.244488	-492.333004	601.367938	938.705552	-360.998363	464.725115	828.277932	-495.162281	425.930614	756.509323	-469.333394	349.499231	709.304005	-456.755800	451.237526	737.790985	-447.159036	259.916652	623.713848	-428.029511	182.851802	615.457965	-378.061368	444.790448	452.757808	-360.009661	361.225242	499.350406	-322.015061	334.036516	489.438102	-437.133716	-270.546811	926.747458	-250.527245	-14.528023	81.426062	-437.370842	-14.289183	81.178486	-36.955801	
503	2.5150	747.126979	1482.233987	-126.995714	664.301811	1518.318927	-450.161843	651.647451	1607.002722	-269.371403	673.665628	1435.674011	-288.080952	678.532371	1215.164324	-16.171651	779.438052	942.412973	-59.835799	637.582551	1229.681576	-491.853008	773.021552	953.218066	-436.076443	146.527868	1311.663820	-203.066218	284.236033	1366.444522	-396.580128	340.948853	1311.410535	-40.041168	318.789215	1284.817472	-365.812126	358.728074	1246.664875	-93.741555	184.983732	1351.503673	-149.512643	175.543394	1365.242000	-231.614173	250.823805	1190.551792	-36.057633	253.008261	1267.870822	-422.984110	271.921485	1040.385760	-25.104837	313.044273	961.303126	-27.674132	312.026586	876.037579	-38.258537	347.586620	970.394434	-36.991358	318.891725	751.351848	-72.103032	324.063741	735.168143	-190.216259	252.960037	600.725007	-39.153233	246.411858	512.354928	-48.849604	195.693669	439.480715	-48.533061	274.354013	503.841458	-73.817064	142.484509	323.803378	-65.929216	75.618545	334.348470	-100.805770	285.048312	104.832596	-120.758235	194.475777	176.787037	-43.913399	221.153429	176.406171	-157.481752	350.585360	1156.365222	-466.629631	427.066721	1118.260936	-481.742544	451.895867	1143.981368	-472.844196	475.410664	1043.991365	-492.483265	583.527866	955.641368	-489.320184	599.357274	939.143947	-357.984051	465.167609	826.590135	-493.116049	427.451964	753.893598	-467.750852	351.775496	705.522340	-455.931529	452.938577	735.650507	-445.627807	263.276020	617.639805	-427.897233	185.971698	607.047138	-378.116115	452.696580	452.181066	-359.961407	368.353049	496.770411	-320.491979	340.883148	485.666734	-437.291174	-270.552712	926.829615	-250.338755	-14.558285	81.409992	-437.389753	-14.305666	81.167762	-36.929062	
